<svg width="127" height="402" viewBox="0 0 127 402" fill="none" xmlns="http://www.w3.org/2000/svg">
<path d="M119.836 171.835C121.912 189.068 107.902 204.53 88.5645 206.379C69.2151 208.216 51.8474 195.749 49.7781 178.522C47.7025 161.289 61.7128 145.822 81.0561 143.979C100.406 142.141 117.767 154.608 119.836 171.835Z" fill="white" fill-opacity="0.5"/>
<path d="M126.832 108.054C128.545 122.319 116.96 135.115 100.949 136.64C84.932 138.171 70.5653 127.848 68.846 113.589C67.133 99.3238 78.7302 86.5287 94.7349 85.0031C110.746 83.4719 125.113 93.7949 126.832 108.054Z" fill="white" fill-opacity="0.5"/>
<path d="M111.209 59.4908C112.565 70.7826 103.394 80.9107 90.7151 82.1189C78.0364 83.3272 66.6643 75.159 65.3076 63.8728C63.951 52.581 73.1224 42.4473 85.8012 41.2391C98.4799 40.0309 109.852 48.199 111.209 59.4908Z" fill="white" fill-opacity="0.5"/>
<path d="M81.5749 26.4063C82.5752 34.7304 75.817 42.197 66.4705 43.0823C57.1365 43.9732 48.759 37.9542 47.7462 29.6357C46.7521 21.3172 53.5104 13.8506 62.8506 12.9597C72.1909 12.0689 80.5746 18.0878 81.5749 26.4063Z" fill="white" fill-opacity="0.5"/>
<path d="M49.5842 9.3293C50.2656 14.9752 45.6705 20.042 39.3437 20.6434C33.0043 21.2558 27.3213 17.1634 26.6336 11.5231C25.9522 5.87161 30.5473 0.80479 36.8742 0.197885C43.2198 -0.397885 48.9027 3.68341 49.5842 9.3293Z" fill="white" fill-opacity="0.5"/>
<path d="M94.5976 236.267C96.8921 255.287 81.4375 272.348 60.0812 274.385C38.7374 276.429 19.5755 262.659 17.2873 243.645C14.9929 224.636 30.4474 207.57 51.8037 205.527C73.1475 203.494 92.3095 217.253 94.5976 236.267Z" fill="white" fill-opacity="0.5"/>
<path d="M67.2082 303.083C69.165 319.425 55.8923 334.085 37.5494 335.833C19.2002 337.587 2.73911 325.755 0.776033 309.419C-1.1933 293.077 12.0919 278.417 30.4348 276.668C48.784 274.915 65.2451 286.746 67.2082 303.083Z" fill="white" fill-opacity="0.5"/>
<path d="M68.6522 355.722C69.9401 366.418 61.2438 376.017 49.234 377.164C37.2242 378.305 26.446 370.566 25.1644 359.87C23.8765 349.174 32.5666 339.575 44.5764 338.428C56.5924 337.286 67.3643 345.026 68.6522 355.722Z" fill="white" fill-opacity="0.5"/>
<path d="M86.4451 381.774C87.164 387.715 82.3313 393.044 75.6606 393.684C68.9899 394.324 63.0069 390.026 62.2879 384.085C61.569 378.138 66.4016 372.804 73.0724 372.17C79.7431 371.529 85.7261 375.833 86.4451 381.774Z" fill="white" fill-opacity="0.5"/>
<path d="M106.439 395.644C106.757 398.317 104.582 400.716 101.587 401.006C98.5863 401.29 95.8917 399.352 95.5729 396.685C95.2478 394.013 97.4172 391.613 100.424 391.323C103.425 391.034 106.12 392.977 106.439 395.644Z" fill="white" fill-opacity="0.5"/>
</svg>
