<svg width="166" height="58" viewBox="0 0 166 58" fill="none" xmlns="http://www.w3.org/2000/svg">
<g id="Ebene 1">
<path id="Vector" d="M33.8356 12.6131C33.9639 13.8391 33.0846 14.9363 31.8631 15.0699C30.6417 15.1987 29.5485 14.3162 29.4154 13.0901C29.2823 11.8641 30.1664 10.7669 31.3879 10.6334C32.6093 10.5046 33.7025 11.3871 33.8356 12.6131Z" fill="#FFD500"/>
<path id="Vector_2" d="M34.2729 8.08117C34.3822 9.09251 33.6503 10.0037 32.6427 10.1134C31.635 10.2231 30.7272 9.48846 30.6179 8.47712C30.5086 7.46578 31.2406 6.55463 32.2482 6.44491C33.2558 6.33519 34.1636 7.06984 34.2729 8.08117Z" fill="#FFD500"/>
<path id="Vector_3" d="M33.289 4.62735C33.3746 5.42879 32.7947 6.14913 31.9963 6.23499C31.1978 6.32086 30.4801 5.73887 30.3945 4.93743C30.309 4.13599 30.8888 3.41565 31.6873 3.32978C32.4858 3.24392 33.2035 3.82591 33.289 4.62735Z" fill="#FFD500"/>
<path id="Vector_4" d="M31.4212 2.2755C31.483 2.86704 31.0599 3.39656 30.4706 3.45858C29.8812 3.52059 29.3537 3.09602 29.2919 2.50449C29.2301 1.91295 29.6531 1.38343 30.2425 1.32141C30.8318 1.2594 31.3594 1.68397 31.4212 2.2755Z" fill="#FFD500"/>
<path id="Vector_5" d="M29.406 1.06381C29.4487 1.46453 29.1588 1.82709 28.7596 1.87002C28.3603 1.91295 28.0039 1.62196 27.9563 1.22124C27.9136 0.820518 28.2035 0.457963 28.6027 0.415029C29.002 0.372095 29.3632 0.663093 29.406 1.06381Z" fill="#FFD500"/>
<path id="Vector_6" d="M32.2434 17.188C32.386 18.538 31.4116 19.7545 30.0666 19.8976C28.7215 20.0407 27.5143 19.0628 27.3669 17.7127C27.2244 16.3627 28.1987 15.151 29.5438 15.0031C30.8888 14.86 32.096 15.8379 32.2434 17.188Z" fill="#FFD500"/>
<path id="Vector_7" d="M30.5133 21.9394C30.6369 23.0986 29.8004 24.1433 28.6455 24.2673C27.4905 24.3914 26.4496 23.5518 26.3261 22.3878C26.2025 21.2286 27.039 20.1838 28.1939 20.0598C29.3489 19.9358 30.3898 20.7754 30.5133 21.9346" fill="#FFD500"/>
<path id="Vector_8" d="M30.6037 25.6794C30.6845 26.4379 30.1379 27.1201 29.3774 27.2012C28.6217 27.2823 27.9421 26.7337 27.8613 25.9704C27.7805 25.2119 28.327 24.5297 29.0827 24.4486C29.8384 24.3675 30.5181 24.9161 30.5989 25.6794" fill="#FFD500"/>
<path id="Vector_9" d="M31.7301 27.5303C31.7729 27.9549 31.4687 28.3318 31.0504 28.3747C30.6322 28.4224 30.252 28.1123 30.2092 27.6925C30.1616 27.268 30.4706 26.8911 30.8888 26.8434C31.3071 26.8004 31.6873 27.1058 31.7301 27.5256" fill="#FFD500"/>
<path id="Vector_10" d="M32.9896 28.5178C33.0086 28.7086 32.8708 28.8803 32.6854 28.8994C32.4953 28.9185 32.3242 28.7802 32.3052 28.5941C32.2862 28.4033 32.4193 28.2316 32.6094 28.2125C32.7995 28.1934 32.9706 28.3317 32.9896 28.5178Z" fill="#FFD500"/>
<path id="Vector_11" d="M34.7909 29.1189C46.3546 29.1189 51.925 23.1653 45.8841 12.8516C40.8556 4.26002 33.1845 1.45976 29.1445 0C33.1132 1.61242 38.3033 5.75794 41.6731 12.7801C46.1408 22.0968 41.3071 29.1189 34.7957 29.1189" fill="#0061AB"/>
<path id="Vector_12" d="M123.774 12.5177H128.456V25.6842H132.496V12.5177H137.177V8.98756H123.774V12.5177ZM122.752 20.5559C122.752 17.7652 121.184 16.3818 118.546 15.6423L116.407 15.046C115.361 14.7598 114.672 14.3782 114.672 13.4479C114.672 12.5177 115.314 11.9452 116.478 11.9452C117.643 11.9452 118.308 12.8755 118.356 13.925H122.039C121.944 11.015 119.829 8.65363 116.502 8.65363C113.175 8.65363 110.704 10.5141 110.704 13.8534C110.704 16.4772 112.462 17.8368 114.957 18.5046L117.168 19.1009C118.237 19.3872 118.784 19.9835 118.784 20.8899C118.784 21.8916 117.904 22.7265 116.668 22.7265C115.1 22.7265 114.435 21.7724 114.292 20.5559H110.442C110.727 23.8237 112.866 26.0181 116.573 26.0181C119.591 26.0181 122.752 24.0145 122.752 20.5559ZM99.9147 22.5357C96.7302 22.5357 95.1143 19.9835 95.1143 17.3359C95.1143 14.6883 96.7302 12.1361 99.9147 12.1361C103.099 12.1361 104.739 14.6644 104.739 17.3359C104.739 20.0073 103.099 22.5357 99.9147 22.5357ZM99.9147 8.65363C94.4726 8.65363 91.0743 12.5415 91.0743 17.3359C91.0743 22.1302 94.4726 26.0181 99.9147 26.0181C105.357 26.0181 108.779 22.1302 108.779 17.3359C108.779 12.5415 105.357 8.65363 99.9147 8.65363ZM91.716 8.98756H87.3909L83.945 15.9047L80.4992 8.98756H76.1741L81.9251 19.6734V25.6842H85.965V19.6734L91.716 8.98756ZM64.4345 8.98756H61.4402L57.7805 19.0055L55.0001 8.98756H50.8651L56.1883 25.6842H59.1113L62.9374 14.736L66.7634 25.6842H69.6864L75.0097 8.98756H70.8747L68.0942 19.0055L64.4345 8.98756Z" fill="#0061AB"/>
<g id="Group">
<path id="Vector_13" d="M113.08 48.4345H111.464V55.1131H115.913V53.7011H113.08V48.4345ZM104.154 52.3749C104.154 51.8406 104.439 51.5448 104.924 51.5448C105.447 51.5448 105.656 51.8883 105.656 52.3844V55.1131H107.215V52.3272C107.215 51.8406 107.519 51.5448 107.985 51.5448C108.508 51.5448 108.717 51.8883 108.717 52.3844V55.1131H110.276V52.1268C110.276 50.9819 109.725 50.19 108.574 50.19C107.833 50.19 107.272 50.543 106.977 51.0201C106.721 50.5049 106.236 50.19 105.513 50.19C104.848 50.19 104.316 50.5621 104.107 51.0201V50.3045H102.595V55.1131H104.154V52.3749ZM94.8956 49.8274H97.5857L95.3804 55.1131H97.0344L99.7435 48.4917V48.4345H94.8956V49.8274ZM92.3671 54.2926C92.3671 54.8173 92.7473 55.2085 93.2891 55.2085C93.831 55.2085 94.2112 54.8173 94.2112 54.2926C94.2112 53.7678 93.831 53.3767 93.2891 53.3767C92.7473 53.3767 92.3671 53.7678 92.3671 54.2926ZM88.1085 49.131V50.5621L89.6484 50.1995V55.1131H91.2264V48.3868H91.1884L88.1085 49.131ZM82.5952 56.1149H84.1731L87.6142 47.9574H86.0363L82.5952 56.1149ZM79.0115 53.7201C78.3366 53.7201 77.8899 53.2431 77.8899 52.5943C77.8899 51.9455 78.3366 51.4685 79.0115 51.4685C79.6864 51.4685 80.1617 51.9455 80.1617 52.5943C80.1617 53.2431 79.6959 53.7201 79.0115 53.7201ZM78.6978 50.19C77.31 50.19 76.3499 51.2204 76.3499 52.5943C76.3499 53.9682 77.31 54.9986 78.6978 54.9986C79.3728 54.9986 79.9431 54.6361 80.1617 54.2449V55.0082C80.1617 55.676 79.6579 56.01 79.021 56.01C78.4887 56.01 78.1275 55.8382 77.9469 55.4948H76.3975C76.7397 56.6397 77.7093 57.2121 79.0401 57.2121C80.5515 57.2121 81.7207 56.2676 81.7207 55.0177V50.3045H80.1902V51.0201C79.9716 50.5335 79.4203 50.19 78.6978 50.19ZM69.3917 52.3749C69.3917 51.8406 69.6769 51.5448 70.1617 51.5448C70.6845 51.5448 70.8936 51.8883 70.8936 52.3844V55.1131H72.4526V52.3272C72.4526 51.8406 72.7568 51.5448 73.2225 51.5448C73.7454 51.5448 73.9545 51.8883 73.9545 52.3844V55.1131H75.5134V52.1268C75.5134 50.9819 74.9621 50.19 73.8119 50.19C73.0705 50.19 72.5096 50.543 72.2149 51.0201C71.9583 50.5049 71.4735 50.19 70.7511 50.19C70.0857 50.19 69.5533 50.5621 69.3442 51.0201V50.3045H67.8328V55.1131H69.3917V52.3749ZM62.9278 52.7565C62.9278 53.3862 62.6047 53.8728 61.9202 53.8728C61.2358 53.8728 60.9126 53.3862 60.9126 52.7565V50.7911C60.9126 50.1614 61.2358 49.6748 61.9202 49.6748C62.6047 49.6748 62.9278 50.1614 62.9278 50.7911V52.7565ZM61.9202 55.2467C63.4887 55.2467 64.5058 54.2544 64.5058 52.6516V50.896C64.5058 49.2932 63.4887 48.3009 61.9202 48.3009C60.3518 48.3009 59.3347 49.2932 59.3347 50.896V52.6516C59.3347 54.2544 60.3518 55.2467 61.9202 55.2467ZM55.3328 50.6384C55.3518 50.0851 55.5324 49.6748 56.1503 49.6748C56.616 49.6748 56.8727 49.9992 56.8727 50.4094C56.8727 50.7243 56.7301 50.9533 56.4925 51.2586L53.5552 55.0368V55.1131H58.4316V53.7392H56.4069L57.6902 52.1554C58.0989 51.6498 58.4316 51.1727 58.4316 50.4094C58.4316 49.2264 57.5571 48.3009 56.1598 48.3009C54.7624 48.3009 53.8404 49.0928 53.8024 50.6384H55.3328ZM49.4868 49.131V50.5621L51.0267 50.1995V55.1131H52.6046V48.3868H52.5666L49.4868 49.131Z" fill="#0061AB"/>
<path id="Vector_14" d="M161.759 40.2436C161.759 39.5757 162.153 39.2084 162.757 39.2084C163.413 39.2084 163.708 39.6378 163.708 40.2579V43.6688H165.656V39.9383C165.656 38.5072 164.943 37.5149 163.508 37.5149C162.676 37.5149 161.963 37.9776 161.702 38.5501V37.6532H159.815V43.664H161.764V40.2436H161.759ZM155.381 42.19C154.43 42.19 153.955 41.4648 153.955 40.6634C153.955 39.862 154.43 39.1369 155.381 39.1369C156.331 39.1369 156.806 39.862 156.806 40.6634C156.806 41.4648 156.331 42.19 155.381 42.19ZM155.381 37.5149C153.251 37.5149 152.054 39.0415 152.054 40.6634C152.054 42.2854 153.251 43.8119 155.381 43.8119C157.51 43.8119 158.708 42.2854 158.708 40.6634C158.708 39.0415 157.51 37.5149 155.381 37.5149ZM151.032 35.8691C151.032 35.2633 150.547 34.7719 149.915 34.7719C149.283 34.7719 148.798 35.2489 148.798 35.8691C148.798 36.4893 149.297 36.9806 149.915 36.9806C150.533 36.9806 151.032 36.5036 151.032 35.8691ZM150.889 37.658H148.94V43.6688H150.889V37.658ZM147.182 42.19C146.716 42.19 146.502 41.9753 146.502 41.5126V39.2704H147.857V37.658H146.502V35.8596H144.554V37.658H143.517V39.2704H144.554V41.6318C144.554 42.9532 145.209 43.8119 146.645 43.8119C147.049 43.8119 147.595 43.726 147.795 43.6449V42.0945C147.605 42.1518 147.415 42.19 147.177 42.19M139.858 37.5149C137.838 37.5149 136.54 38.8506 136.54 40.6634C136.54 42.4762 137.838 43.8119 139.858 43.8119C141.602 43.8119 142.804 42.667 143.052 41.3551H141.165C140.984 41.794 140.594 42.19 139.843 42.19C138.94 42.19 138.465 41.4982 138.465 40.6634C138.465 39.8286 138.94 39.1369 139.843 39.1369C140.594 39.1369 140.984 39.528 141.165 39.9717H143.052C142.804 38.6598 141.602 37.5149 139.858 37.5149ZM132.61 38.8745C133.346 38.8745 133.807 39.342 133.902 40.0576H131.303C131.407 39.3038 131.873 38.8745 132.61 38.8745ZM132.667 42.3951C131.821 42.3951 131.421 41.918 131.298 41.2597H135.765V40.6777C135.765 38.7314 134.435 37.5197 132.581 37.5197C130.727 37.5197 129.382 38.7934 129.382 40.6586C129.382 42.5239 130.571 43.8167 132.662 43.8167C134.159 43.8167 135.347 42.9342 135.713 41.7988H133.921C133.693 42.1661 133.242 42.3951 132.662 42.3951M126.364 37.6628V44.1268C126.364 44.5084 126.15 44.6754 125.794 44.6754C125.637 44.6754 125.499 44.6515 125.366 44.6038V46.2019C125.699 46.2973 126.022 46.2973 126.364 46.2973C127.681 46.2973 128.313 45.4625 128.313 44.3653V37.6628H126.364ZM128.456 35.8739C128.456 35.268 127.971 34.7767 127.339 34.7767C126.707 34.7767 126.222 35.2537 126.222 35.8739C126.222 36.494 126.721 36.9854 127.339 36.9854C127.957 36.9854 128.456 36.5083 128.456 35.8739ZM121.103 40.2484C121.103 39.5805 121.493 39.2132 122.101 39.2132C122.757 39.2132 123.052 39.6425 123.052 40.2627V43.6736H125V39.9431C125 38.5119 124.287 37.5197 122.852 37.5197C122.02 37.5197 121.307 37.9824 121.046 38.5549V37.658H119.154V43.6688H121.103V40.2484ZM117.814 35.8739C117.814 35.268 117.324 34.7767 116.697 34.7767C116.07 34.7767 115.58 35.2537 115.58 35.8739C115.58 36.494 116.079 36.9854 116.697 36.9854C117.315 36.9854 117.814 36.5083 117.814 35.8739ZM117.671 37.6628H115.723V43.6736H117.671V37.6628ZM107.538 34.3473C108.655 36.3032 109.344 37.949 109.344 39.8095C109.344 41.67 108.655 43.3158 107.538 45.2717H109.449C110.613 43.5543 111.326 41.6843 111.326 39.8095C111.326 37.9347 110.613 36.0647 109.449 34.3473H107.538ZM107.206 43.6736V42.1375H104.772L107.125 37.7248V37.6676H102.015V39.1798H104.297L101.935 43.6163V43.6736H107.21H107.206ZM97.4764 42.1947C96.6304 42.1947 96.0363 41.5364 96.0363 40.6682C96.0363 39.8 96.6304 39.1416 97.4764 39.1416C98.3224 39.1416 98.9356 39.7856 98.9356 40.6682C98.9356 41.5507 98.3319 42.1947 97.4764 42.1947ZM97.0867 37.5197C95.3519 37.5197 94.0924 38.8793 94.0924 40.6682C94.0924 42.4571 95.3519 43.8167 97.0867 43.8167C97.9897 43.8167 98.6789 43.3492 99.0116 42.7767V43.6736H100.889V34.9675H98.9403V38.5549C98.6694 37.949 97.9897 37.5197 97.0867 37.5197ZM89.9241 42.1947C89.0686 42.1947 88.465 41.5507 88.465 40.6682C88.465 39.7856 89.0686 39.1416 89.9241 39.1416C90.7796 39.1416 91.3595 39.8 91.3595 40.6682C91.3595 41.5364 90.7654 42.1947 89.9241 42.1947ZM90.3139 37.5197C89.4108 37.5197 88.7359 37.949 88.4602 38.5549V34.9675H86.5116V43.6736H88.389V42.7767C88.7217 43.3492 89.4108 43.8167 90.3139 43.8167C92.0487 43.8167 93.3082 42.4571 93.3082 40.6682C93.3082 38.8793 92.0487 37.5197 90.3139 37.5197ZM82.0201 42.1947C81.1646 42.1947 80.561 41.5507 80.561 40.6682C80.561 39.7856 81.1646 39.1416 82.0201 39.1416C82.8756 39.1416 83.4555 39.8 83.4555 40.6682C83.4555 41.5364 82.8614 42.1947 82.0201 42.1947ZM82.4099 37.5197C81.5068 37.5197 80.8319 37.949 80.5562 38.5549V34.9675H78.6076V43.6736H80.4849V42.7767C80.8176 43.3492 81.5068 43.8167 82.4099 43.8167C84.1446 43.8167 85.4042 42.4571 85.4042 40.6682C85.4042 38.8793 84.1446 37.5197 82.4099 37.5197ZM77.3005 39.4136H73.4982V41.1548H77.3005V39.4136ZM69.0686 42.1947C68.2131 42.1947 67.6094 41.5507 67.6094 40.6682C67.6094 39.7856 68.2131 39.1416 69.0686 39.1416C69.9241 39.1416 70.5039 39.8 70.5039 40.6682C70.5039 41.5364 69.9098 42.1947 69.0686 42.1947ZM69.4583 37.5197C68.5553 37.5197 67.8804 37.949 67.6047 38.5549V34.9675H65.656V43.6736H67.5334V42.7767C67.8661 43.3492 68.5553 43.8167 69.4583 43.8167C71.1931 43.8167 72.4526 42.4571 72.4526 40.6682C72.4526 38.8793 71.1931 37.5197 69.4583 37.5197ZM60.8224 42.1947C59.9763 42.1947 59.3822 41.5364 59.3822 40.6682C59.3822 39.8 59.9763 39.1416 60.8224 39.1416C61.6684 39.1416 62.2815 39.7856 62.2815 40.6682C62.2815 41.5507 61.6779 42.1947 60.8224 42.1947ZM60.4279 37.5197C58.6931 37.5197 57.4336 38.8793 57.4336 40.6682C57.4336 42.4571 58.6931 43.8167 60.4279 43.8167C61.3309 43.8167 62.0201 43.3492 62.3528 42.7767V43.6736H64.2302V37.6628H62.3148V38.5596C62.0438 37.9538 61.3309 37.5244 60.4279 37.5244M48.7358 40.2531C48.7358 39.5853 49.0923 39.218 49.7007 39.218C50.3566 39.218 50.618 39.6473 50.618 40.2675V43.6783H52.5666V40.1959C52.5666 39.5901 52.9469 39.218 53.5315 39.218C54.1874 39.218 54.444 39.6473 54.444 40.2675V43.6783H56.3927V39.9478C56.3927 38.5167 55.7035 37.5244 54.2682 37.5244C53.3413 37.5244 52.6427 37.9633 52.272 38.5596C51.9488 37.9156 51.3451 37.5244 50.4421 37.5244C49.6104 37.5244 48.945 37.9872 48.6835 38.5596V37.6628H46.7967V43.6736H48.7453V40.2531H48.7358ZM43.4126 41.1118C43.4126 41.7558 43.0562 42.147 42.4383 42.147C41.7824 42.147 41.5115 41.7177 41.5115 41.0975V37.6628H39.5628V41.3981C39.5628 42.8292 40.252 43.8167 41.6873 43.8167C42.5191 43.8167 43.2082 43.3492 43.4697 42.7767V43.6736H45.3565V37.6628H43.4079V41.1118H43.4126ZM33.7025 41.8035C33.8356 43.2442 34.867 43.8215 36.1645 43.8215C37.462 43.8215 38.598 43.0105 38.598 41.7606C38.598 40.8876 38.1369 40.3152 37.1483 40.0528L36.0932 39.7666C35.7985 39.695 35.6322 39.5519 35.6322 39.2895C35.6322 39.0271 35.8223 38.8363 36.1645 38.8363C36.5542 38.8363 36.7111 39.1321 36.7206 39.3945H38.3271C38.2225 38.2973 37.4715 37.5244 36.1312 37.5244C34.9097 37.5244 33.8879 38.2257 33.8879 39.4088C33.8879 40.3867 34.4012 40.9353 35.5514 41.2216L36.3689 41.4362C36.7016 41.5173 36.8584 41.6747 36.8584 41.9514C36.8584 42.2711 36.5875 42.5096 36.1455 42.5096C35.6227 42.5096 35.3518 42.2329 35.3137 41.8035H33.7073H33.7025ZM29.6531 42.1995C28.7025 42.1995 28.2272 41.4744 28.2272 40.673C28.2272 39.8715 28.7025 39.1464 29.6531 39.1464C30.6037 39.1464 31.0789 39.8715 31.0789 40.673C31.0789 41.4744 30.6037 42.1995 29.6531 42.1995ZM29.6531 37.5244C27.5238 37.5244 26.3261 39.051 26.3261 40.673C26.3261 42.2949 27.5238 43.8215 29.6531 43.8215C31.7824 43.8215 32.9801 42.2949 32.9801 40.673C32.9801 39.051 31.7776 37.5244 29.6531 37.5244ZM21.3831 40.2531C21.3831 39.5853 21.7776 39.218 22.3812 39.218C23.0371 39.218 23.3318 39.6473 23.3318 40.2675V43.6783H25.2805V39.9478C25.2805 38.5167 24.5675 37.5244 23.1274 37.5244C22.2957 37.5244 21.5827 37.9872 21.3213 38.5596V37.6628H19.4344V43.6736H21.3831V40.2531ZM15.1474 38.8793C15.884 38.8793 16.3451 39.3468 16.4449 40.0623H13.8403C13.9496 39.3086 14.4107 38.8793 15.1474 38.8793ZM15.2044 42.3999C14.3631 42.3999 13.9591 41.9228 13.8356 41.2645H18.3033V40.6825C18.3033 38.7361 16.9725 37.5244 15.1188 37.5244C13.2652 37.5244 11.9202 38.7982 11.9202 40.6634C11.9202 42.5287 13.1084 43.8215 15.1996 43.8215C16.6968 43.8215 17.885 42.9389 18.251 41.8035H16.4591C16.2358 42.1709 15.7842 42.3999 15.1996 42.3999M7.44297 42.1995C6.59696 42.1995 6.00285 41.5412 6.00285 40.673C6.00285 39.8047 6.59696 39.1464 7.44297 39.1464C8.28897 39.1464 8.90209 39.7904 8.90209 40.673C8.90209 41.5555 8.29373 42.1995 7.44297 42.1995ZM7.04848 37.5244C5.31368 37.5244 4.05418 38.884 4.05418 40.673C4.05418 42.4619 5.31368 43.8215 7.04848 43.8215C7.95152 43.8215 8.64069 43.3539 8.97339 42.7815V43.6783H10.8508V34.9722H8.90209V38.5596C8.62643 37.9538 7.95152 37.5244 7.04848 37.5244ZM1.86786 34.3521C0.703408 36.0695 -0.00952148 37.9442 -0.00952148 39.8143C-0.00952148 41.6843 0.703408 43.5591 1.86786 45.2764H3.77851C2.66159 43.3206 1.97242 41.6747 1.97242 39.8143C1.97242 37.9538 2.66159 36.308 3.77851 34.3521H1.87736H1.86786Z" fill="#0061AB"/>
</g>
<path id="Vector_15" d="M141.645 8.2052V7.18909H142.134C142.515 7.18909 142.705 7.41807 142.705 7.68999C142.705 7.9619 142.515 8.20043 142.134 8.20043H141.645V8.2052ZM143.023 7.69476C143.023 7.27496 142.7 6.91717 142.206 6.91717H141.312V9.19745H141.645V8.48188H142.144L142.7 9.19745H143.104L142.5 8.43418C142.823 8.32446 143.023 8.01915 143.023 7.69476ZM142.073 5.89152C143.418 5.89152 144.33 6.90286 144.33 8.14318C144.33 9.3835 143.413 10.3948 142.073 10.3948C140.732 10.3948 139.805 9.36919 139.805 8.14318C139.805 6.91717 140.723 5.89152 142.073 5.89152ZM139.496 8.14318C139.496 9.47891 140.495 10.6715 142.073 10.6715C143.65 10.6715 144.639 9.47891 144.639 8.14318C144.639 6.80745 143.641 5.61484 142.073 5.61484C140.504 5.61484 139.496 6.79314 139.496 8.14318Z" fill="#0061AB"/>
</g>
</svg>
